<svg width="35" height="31" viewBox="0 0 35 31" fill="none" xmlns="http://www.w3.org/2000/svg">
<path d="M18.8832 19.4653C19.4663 19.5961 20.0727 19.6638 20.6884 19.6322C21.3229 19.6006 21.9573 19.4698 22.5357 19.2307C23.1141 18.9917 23.6366 18.6669 24.0937 18.2834C24.9941 17.503 25.6331 16.5467 26.0623 15.5272C25.2833 16.3256 24.4809 17.0745 23.5573 17.5616C22.6523 18.0759 21.6587 18.2834 20.6931 18.2112C19.7275 18.1391 18.7805 17.7962 17.8896 17.3135C17.2225 16.9481 16.5788 16.5106 15.9677 16.0234C16.5834 16.1271 17.2085 16.1722 17.8429 16.1271C18.8785 16.0369 19.9234 15.7076 20.7584 15.0625C21.1829 14.7558 21.5188 14.3362 21.7707 13.8942C22.0039 13.4385 22.1065 12.9288 22.0599 12.4461C21.8966 12.9062 21.6914 13.3122 21.3835 13.6506C21.0756 13.9799 20.7351 14.2686 20.3386 14.4806C19.5596 14.9182 18.6732 15.1573 17.7589 15.2249C16.8493 15.3106 15.9163 15.2159 14.9834 15.0625C14.9414 15.0535 14.8994 15.0445 14.8528 15.0355C13.4953 13.7678 12.2685 12.3288 11.1862 10.7905C10.5845 9.91991 10.0014 9.02672 9.54423 8.07489C9.30632 7.60574 9.10107 7.11854 8.96113 6.61782C8.88649 6.36971 8.83518 6.11258 8.83051 5.85545C8.81652 5.59832 8.84917 5.33667 8.98912 5.09308C8.76521 5.26901 8.62993 5.54418 8.55063 5.82387C8.47599 6.10355 8.45267 6.39677 8.45267 6.68097C8.448 7.25839 8.55996 7.81325 8.68591 8.36811C8.97046 9.45978 9.39962 10.5109 9.92674 11.5078C10.3186 12.2431 10.7524 12.9559 11.2376 13.637C11.051 13.5603 10.8644 13.4882 10.6731 13.416C9.83811 13.1273 8.9518 12.9198 8.02817 12.8521C7.56635 12.816 7.09521 12.8205 6.61473 12.8656C6.37683 12.8882 6.13426 12.9288 5.88702 12.9829C5.84038 12.9919 5.78906 13.01 5.74242 13.019C4.82345 12.41 3.98379 11.7153 3.32605 10.9259C2.56102 10.0192 2.08055 8.96357 2.03856 7.85836C1.9546 5.64794 3.53596 3.28865 5.6118 1.98947C5.86837 1.83609 6.13426 1.69174 6.38616 1.60152C6.6054 1.52032 6.94594 1.45265 7.25381 1.41205C7.8789 1.32183 8.5273 1.30379 9.18038 1.35341C10.4912 1.45265 11.8207 1.76392 13.1641 2.08871C14.5076 2.42253 15.8697 2.76537 17.2691 2.95032C18.6779 3.15783 20.1053 3.16234 21.4768 2.93679C20.082 2.9819 18.7106 2.78342 17.3858 2.45862C16.0563 2.1248 14.7688 1.66918 13.4533 1.21808C12.1425 0.766972 10.7944 0.315866 9.33898 0.112868C8.61593 0.00460277 7.8649 -0.0314857 7.1092 0.0271581C6.92261 0.0361802 6.73135 0.0587355 6.54476 0.0858018C6.37216 0.103846 6.13426 0.144446 5.92901 0.203089C5.52317 0.315866 5.15932 0.473753 4.81412 0.654195C3.46599 1.38499 2.36043 2.39546 1.47412 3.60894C0.59714 4.81339 -0.00928447 6.31106 4.51336e-05 7.90347C-0.00461967 9.49587 0.653117 11.0432 1.59541 12.2431C2.5377 13.4566 3.73655 14.3813 4.96339 15.1663L6.07362 15.2339C6.0363 15.252 6.08761 15.2294 6.10627 15.2249L6.1949 15.1979C6.26021 15.1798 6.33018 15.1618 6.40482 15.1482C6.54943 15.1167 6.70803 15.0941 6.86663 15.0806C7.1885 15.0535 7.51971 15.049 7.85557 15.0851C8.53197 15.1437 9.21769 15.3106 9.88942 15.5497C11.2422 16.0189 12.5344 16.7812 13.7379 17.6789C14.9507 18.5676 16.047 19.6277 17.1199 20.7149C18.0482 21.6712 18.9251 22.6907 19.7648 23.7373C19.3543 24.5132 18.9531 25.2936 18.5473 26.0695L17.6796 27.7431C17.2831 27.1431 16.882 26.5477 16.4621 25.9612C15.7624 24.9823 15.0207 24.0305 14.2184 23.1193C13.4207 22.208 12.5717 21.3329 11.6154 20.566C10.6731 19.8082 9.59088 19.0999 8.3687 18.915C8.9518 19.0909 9.46959 19.4022 9.93607 19.7585C10.4026 20.1194 10.8364 20.5209 11.2422 20.9449C12.0492 21.7975 12.7676 22.7268 13.444 23.6877C14.1157 24.6485 14.7408 25.641 15.3472 26.6469C15.9443 27.6484 16.5134 28.6904 17.0359 29.7099L17.6936 31.0001L18.4633 29.719L20.152 26.9086C20.7118 25.9703 21.2855 25.0365 21.8267 24.0937L22.1252 23.5749L21.7567 23.0651C20.861 21.8246 19.9094 20.6201 18.8832 19.4653Z" fill="#20B573"/>
<path d="M3.47996 21.7343C3.49395 21.7298 3.49862 21.7117 3.51261 21.7117C3.53127 21.6982 3.54527 21.6892 3.60124 21.6802C3.6992 21.6531 3.92311 21.6756 4.15635 21.7343C4.63683 21.8516 5.18728 22.1087 5.7144 22.3974C6.24619 22.6861 6.77331 23.0199 7.29577 23.3673C8.34068 24.062 9.35761 24.8289 10.3792 25.5958C12.4084 27.1566 14.4049 28.7806 16.4854 30.3639C14.9694 28.2618 13.2341 26.3356 11.3448 24.5402C10.4072 23.6334 9.40892 22.7808 8.33602 21.9824C7.79956 21.5854 7.23979 21.211 6.64269 20.8591C6.03627 20.5208 5.40652 20.196 4.61817 19.9885C4.47356 19.9569 4.31962 19.9299 4.15635 19.9073L5.57445 15.5361L2.01988 20.6426C1.95457 20.7238 1.89393 20.8095 1.84728 20.8952C1.54873 21.3779 1.51608 22.014 1.65602 22.4786C1.80063 22.9252 2.01055 23.2951 2.24845 23.5883C2.7196 24.1928 3.24205 24.6529 3.78317 25.0725C4.32429 25.492 4.88406 25.8574 5.45783 26.2047C7.73892 27.5716 10.1553 28.6272 12.6743 29.4076C10.5005 27.9595 8.31269 26.5701 6.28817 25.0544C5.78903 24.671 5.30856 24.274 4.85141 23.868C4.40359 23.462 3.97909 23.0335 3.68987 22.6049C3.53594 22.3929 3.45663 22.1899 3.40066 22.032C3.37733 21.8786 3.40066 21.8471 3.43798 21.7839C3.4613 21.7749 3.47063 21.7568 3.47996 21.7343Z" fill="#20B573"/>
<path d="M24.2243 23.2681C24.994 23.3132 25.7124 23.0651 26.3141 22.7403C26.9299 22.4155 27.443 21.9734 27.8908 21.4681C27.2284 21.6621 26.6313 21.9192 26.0249 22.0952C25.4231 22.2801 24.8354 22.4019 24.2756 22.3704C23.7205 22.3478 23.1747 22.1583 22.5963 21.8832C22.0225 21.617 21.4067 21.2967 20.7303 21.1569C21.2202 21.626 21.668 22.0726 22.2138 22.4831C22.4796 22.6951 22.7922 22.8666 23.1234 23.0199C23.4639 23.1508 23.8371 23.259 24.2243 23.2681Z" fill="#20B573"/>
<path d="M34.9347 20.2953C34.7481 19.0276 34.179 17.7916 33.2087 16.8759C32.7283 16.4203 32.1498 16.0549 31.5201 15.8338C30.8903 15.6128 30.2279 15.5271 29.5889 15.5586C28.306 15.6579 27.1725 16.1721 26.2395 16.8623C27.3637 16.524 28.502 16.2939 29.5655 16.4428C30.6244 16.5736 31.5248 17.0924 32.1358 17.8367C33.3673 19.3389 33.5213 21.617 32.6536 23.2726C32.4437 23.6966 32.1592 24.0485 31.7906 24.4454C31.4454 24.8334 31.0629 25.1852 30.6618 25.501C29.8594 26.1281 28.9311 26.5882 27.9515 26.701C26.9766 26.8228 25.927 26.6333 25.008 26.0739C24.0657 25.5461 23.2634 24.7386 22.5077 23.859C22.9042 24.9326 23.5386 25.9566 24.4622 26.7822C24.6862 26.9942 24.966 27.1521 25.2179 27.3415C25.4978 27.4904 25.7824 27.6483 26.0856 27.7701C26.3981 27.8693 26.706 27.9956 27.0419 28.0317L27.5363 28.1084L28.0401 28.1129C29.3976 28.1174 30.6804 27.5896 31.7253 26.8679C32.2525 26.507 32.7283 26.0875 33.1621 25.6409C33.5773 25.2123 34.0251 24.6755 34.3236 24.08C34.9254 22.9026 35.1213 21.5674 34.9347 20.2953Z" fill="#20B573"/>
<path d="M13.5466 3.94717C12.525 3.84793 11.5034 3.78477 10.5611 3.32465C10.897 3.73064 11.3821 4.0013 11.8626 4.24039C12.3477 4.47497 12.8562 4.64639 13.3646 4.80878C14.3862 5.11554 15.4078 5.35462 16.4294 5.56664C18.4633 5.99519 20.4831 6.34706 22.3957 6.88838C24.2849 7.43873 26.1182 8.16952 27.3124 9.50931C27.9048 10.1769 28.3293 11.0025 28.5252 11.9317C28.7445 12.861 28.7492 13.8535 28.7398 14.882C29.155 13.9392 29.4116 12.9197 29.4349 11.8415C29.4395 10.7679 29.1503 9.63111 28.5019 8.67476C27.8675 7.71391 26.9485 6.96507 25.9829 6.4057C25.008 5.84633 23.9677 5.45838 22.9275 5.15614C20.8377 4.5697 18.7245 4.33512 16.6487 4.16821C15.6037 4.0825 14.5682 4.0419 13.5466 3.94717Z" fill="#20B573"/>
</svg>
