<svg width="43" height="42" viewBox="0 0 43 42" fill="none" xmlns="http://www.w3.org/2000/svg">
<g filter="url(#filter0_d)">
<path d="M14.2629 8.52381C14.6874 9.22001 15.1595 9.88565 15.3904 10.5479C15.4923 10.8739 15.5229 11.183 15.3632 11.4852C15.2036 11.7943 14.8742 12.0524 14.5312 12.3037C14.9523 12.2595 15.387 12.1305 15.7538 11.7943C15.9202 11.6177 16.073 11.3901 16.1308 11.1354C16.2055 10.8807 16.1953 10.626 16.1715 10.3849C16.1036 9.90603 15.9338 9.48491 15.747 9.09436C15.5568 8.7038 15.3429 8.34042 15.1255 7.98722C14.6908 7.28422 14.2255 6.62537 13.8723 5.94275C13.5225 5.26352 13.2678 4.54015 13.5633 3.72168C13.2339 3.99677 13.0335 4.44166 12.9792 4.89674C12.9316 5.35522 13.0029 5.81709 13.132 6.23821C13.3935 7.08724 13.8316 7.8242 14.2629 8.52381Z" fill="#22B573"/>
<path d="M20.1723 5.91552C20.393 6.2789 20.6172 6.6321 20.8141 6.9819C21.0077 7.32831 21.1877 7.68151 21.2556 8.01093C21.3269 8.34035 21.2998 8.65959 21.0722 8.96524C20.8617 9.28108 20.5187 9.53919 20.1689 9.80409C20.6036 9.74296 21.0417 9.61051 21.4322 9.31165C21.6292 9.16561 21.7888 8.95166 21.9111 8.71053C22.0164 8.46262 22.0673 8.18753 22.0537 7.92942C22.0401 7.40642 21.8601 6.95813 21.6767 6.5438C21.4866 6.12947 21.2658 5.7525 21.0451 5.38572C20.6002 4.65555 20.1349 3.96954 19.8021 3.24956C19.4625 2.53637 19.2893 1.76205 19.5304 0.902832C19.2213 1.21867 19.0244 1.65677 18.9497 2.12204C18.8817 2.58731 18.9293 3.06956 19.0481 3.51446C19.2859 4.40764 19.7342 5.18535 20.1723 5.91552Z" fill="#22B573"/>
<path d="M26.6316 7.92251C27.063 8.65608 27.5486 9.36926 27.7354 10.0723C27.8135 10.4153 27.8305 10.7549 27.6233 11.0707C27.4331 11.3968 27.0901 11.6616 26.7301 11.9265C27.1716 11.8688 27.6199 11.7296 28.0071 11.3968C28.109 11.3186 28.1769 11.2032 28.2618 11.1047C28.3229 10.9892 28.401 10.8737 28.4384 10.7447C28.4825 10.6156 28.5165 10.4832 28.5233 10.3541C28.5437 10.2183 28.5369 10.0926 28.5301 9.96359C28.4961 9.45077 28.3229 8.99908 28.1395 8.58136C27.9493 8.16364 27.7286 7.77648 27.5045 7.4029C27.0562 6.65236 26.5671 5.95955 26.1935 5.23617C25.8234 4.51959 25.5381 3.75546 25.8539 2.89624C25.5109 3.1917 25.314 3.66037 25.2698 4.13922C25.2324 4.61808 25.314 5.09693 25.4532 5.53843C25.7351 6.41463 26.1935 7.18555 26.6316 7.92251Z" fill="#22B573"/>
<path d="M23.9754 12.7179C23.9924 12.6398 24.006 12.5583 24.006 12.4734V11.7058C24.006 11.1013 23.5102 10.6089 22.909 10.6089H20.1276C19.5231 10.6089 19.0307 11.1047 19.0307 11.7058V12.4734C19.0307 12.5583 19.0408 12.6398 19.0612 12.7179C11.5456 13.8997 5.80273 20.3965 5.80273 28.2382H37.2305C37.2305 20.3965 31.4877 13.8997 23.9754 12.7179ZM32.7714 22.5089C32.2824 20.0603 29.8507 18.0158 27.7247 16.9087C27.0455 16.5555 27.6466 15.5299 28.3259 15.8831C30.7099 17.1261 33.3691 19.449 33.9159 22.1931C34.0687 22.9436 32.9208 23.2595 32.7714 22.5089Z" fill="#22B573"/>
<path d="M37.9033 29.6953H5.12722C4.52611 29.6953 4.03027 30.1878 4.03027 30.7923C4.03027 31.3968 4.52611 31.8892 5.12722 31.8892H6.50266V32.6635C6.50266 33.2239 6.96113 33.6824 7.52149 33.6824H35.509C36.0694 33.6824 36.5278 33.2239 36.5278 32.6635V31.8892H37.9033C38.5078 31.8892 39.0002 31.3934 39.0002 30.7923C39.0002 30.1911 38.5078 29.6953 37.9033 29.6953Z" fill="#22B573"/>
</g>
<defs>
<filter id="filter0_d" x="0.0302734" y="0.902832" width="42.9699" height="40.7795" filterUnits="userSpaceOnUse" color-interpolation-filters="sRGB">
<feFlood flood-opacity="0" result="BackgroundImageFix"/>
<feColorMatrix in="SourceAlpha" type="matrix" values="0 0 0 0 0 0 0 0 0 0 0 0 0 0 0 0 0 0 127 0"/>
<feOffset dy="4"/>
<feGaussianBlur stdDeviation="2"/>
<feColorMatrix type="matrix" values="0 0 0 0 0 0 0 0 0 0 0 0 0 0 0 0 0 0 0.25 0"/>
<feBlend mode="normal" in2="BackgroundImageFix" result="effect1_dropShadow"/>
<feBlend mode="normal" in="SourceGraphic" in2="effect1_dropShadow" result="shape"/>
</filter>
</defs>
</svg>
