<svg width="35" height="34" viewBox="0 0 35 34" fill="none" xmlns="http://www.w3.org/2000/svg">
<path d="M10.2626 8.52381C10.6871 9.22001 11.1592 9.88565 11.3901 10.5479C11.492 10.8739 11.5225 11.183 11.3629 11.4852C11.2033 11.7943 10.8739 12.0524 10.5309 12.3037C10.952 12.2595 11.3867 12.1305 11.7535 11.7943C11.9199 11.6177 12.0727 11.3901 12.1305 11.1354C12.2052 10.8807 12.195 10.626 12.1712 10.3849C12.1033 9.90603 11.9335 9.48491 11.7467 9.09436C11.5565 8.7038 11.3426 8.34042 11.1252 7.98722C10.6905 7.28422 10.2252 6.62537 9.87203 5.94275C9.52223 5.26352 9.26752 4.54015 9.56298 3.72168C9.23355 3.99677 9.03318 4.44166 8.97885 4.89674C8.9313 5.35522 9.00262 5.81709 9.13167 6.23821C9.39317 7.08724 9.83127 7.8242 10.2626 8.52381Z" fill="#22B573"/>
<path d="M16.1718 5.91558C16.3926 6.27897 16.6167 6.63216 16.8137 6.98196C17.0073 7.32837 17.1873 7.68157 17.2552 8.01099C17.3265 8.34042 17.2993 8.65965 17.0718 8.9653C16.8612 9.28114 16.5182 9.53925 16.1684 9.80415C16.6031 9.74302 17.0412 9.61057 17.4318 9.31171C17.6288 9.16568 17.7884 8.95172 17.9107 8.71059C18.0159 8.46268 18.0669 8.18759 18.0533 7.92948C18.0397 7.40648 17.8597 6.95819 17.6763 6.54386C17.4861 6.12954 17.2654 5.75257 17.0446 5.38578C16.5997 4.65562 16.1345 3.9696 15.8017 3.24962C15.462 2.53643 15.2888 1.76211 15.53 0.902893C15.2209 1.21873 15.0239 1.65683 14.9492 2.1221C14.8813 2.58737 14.9288 3.06962 15.0477 3.51452C15.2854 4.4077 15.7337 5.18541 16.1718 5.91558Z" fill="#22B573"/>
<path d="M22.6313 7.92268C23.0627 8.65624 23.5483 9.36943 23.7351 10.0724C23.8132 10.4154 23.8302 10.7551 23.623 11.0709C23.4328 11.3969 23.0898 11.6618 22.7298 11.9267C23.1713 11.869 23.6196 11.7297 24.0068 11.3969C24.1087 11.3188 24.1766 11.2033 24.2615 11.1049C24.3226 10.9894 24.4007 10.8739 24.4381 10.7449C24.4822 10.6158 24.5162 10.4834 24.523 10.3543C24.5434 10.2185 24.5366 10.0928 24.5298 9.96375C24.4958 9.45094 24.3226 8.99925 24.1392 8.58153C23.949 8.1638 23.7283 7.77665 23.5041 7.40307C23.0559 6.65253 22.5668 5.95972 22.1932 5.23634C21.8231 4.51976 21.5378 3.75563 21.8536 2.89641C21.5106 3.19187 21.3136 3.66054 21.2695 4.13939C21.2321 4.61825 21.3136 5.0971 21.4529 5.5386C21.7348 6.4148 22.1932 7.18572 22.6313 7.92268Z" fill="#22B573"/>
<path d="M19.9754 12.718C19.9924 12.6399 20.006 12.5584 20.006 12.4735V11.706C20.006 11.1015 19.5102 10.609 18.909 10.609H16.1276C15.5231 10.609 15.0307 11.1049 15.0307 11.706V12.4735C15.0307 12.5584 15.0408 12.6399 15.0612 12.718C7.54559 13.8999 1.80273 20.3967 1.80273 28.2383H33.2305C33.2305 20.3967 27.4877 13.8999 19.9754 12.718ZM28.7714 22.5091C28.2824 20.0605 25.8507 18.016 23.7247 16.9089C23.0455 16.5557 23.6466 15.53 24.3259 15.8832C26.7099 17.1262 29.3691 19.4492 29.9159 22.1932C30.0687 22.9438 28.9208 23.2596 28.7714 22.5091Z" fill="#22B573"/>
<path d="M33.903 29.6953H1.12698C0.525864 29.6953 0.0300293 30.1877 0.0300293 30.7922C0.0300293 31.3967 0.525864 31.8892 1.12698 31.8892H2.50241V32.6635C2.50241 33.2238 2.96089 33.6823 3.52125 33.6823H31.5087C32.0691 33.6823 32.5276 33.2238 32.5276 32.6635V31.8892H33.903C34.5075 31.8892 35 31.3933 35 30.7922C35 30.1911 34.5075 29.6953 33.903 29.6953Z" fill="#22B573"/>
</svg>
