<svg width="28" height="30" viewBox="0 0 28 30" fill="none" xmlns="http://www.w3.org/2000/svg">
<g filter="url(#filter0_d)">
<path d="M13 18H15V16H13V18ZM14 2C8.48 2 4 6.48 4 12C4 17.52 8.48 22 14 22C19.52 22 24 17.52 24 12C24 6.48 19.52 2 14 2ZM14 20C9.59 20 6 16.41 6 12C6 7.59 9.59 4 14 4C18.41 4 22 7.59 22 12C22 16.41 18.41 20 14 20ZM14 6C11.79 6 10 7.79 10 10H12C12 8.9 12.9 8 14 8C15.1 8 16 8.9 16 10C16 12 13 11.75 13 15H15C15 12.75 18 12.5 18 10C18 7.79 16.21 6 14 6Z" fill="white"/>
</g>
<defs>
<filter id="filter0_d" x="-2" y="0" width="32" height="32" filterUnits="userSpaceOnUse" color-interpolation-filters="sRGB">
<feFlood flood-opacity="0" result="BackgroundImageFix"/>
<feColorMatrix in="SourceAlpha" type="matrix" values="0 0 0 0 0 0 0 0 0 0 0 0 0 0 0 0 0 0 127 0"/>
<feOffset dy="4"/>
<feGaussianBlur stdDeviation="2"/>
<feColorMatrix type="matrix" values="0 0 0 0 0 0 0 0 0 0 0 0 0 0 0 0 0 0 0.25 0"/>
<feBlend mode="normal" in2="BackgroundImageFix" result="effect1_dropShadow"/>
<feBlend mode="normal" in="SourceGraphic" in2="effect1_dropShadow" result="shape"/>
</filter>
</defs>
</svg>
