<svg width="29" height="29" viewBox="0 0 29 29" fill="none" xmlns="http://www.w3.org/2000/svg">
<g filter="url(#filter0_d)">
<path d="M16 3C11.03 3 7 7.03 7 12H4L7.89 15.89L7.96 16.03L12 12H9C9 8.13 12.13 5 16 5C19.87 5 23 8.13 23 12C23 15.87 19.87 19 16 19C14.07 19 12.32 18.21 11.06 16.94L9.64 18.36C11.27 19.99 13.51 21 16 21C20.97 21 25 16.97 25 12C25 7.03 20.97 3 16 3ZM15 8V13L19.28 15.54L20 14.33L16.5 12.25V8H15Z" fill="white"/>
</g>
<defs>
<filter id="filter0_d" x="-1" y="0" width="32" height="32" filterUnits="userSpaceOnUse" color-interpolation-filters="sRGB">
<feFlood flood-opacity="0" result="BackgroundImageFix"/>
<feColorMatrix in="SourceAlpha" type="matrix" values="0 0 0 0 0 0 0 0 0 0 0 0 0 0 0 0 0 0 127 0"/>
<feOffset dy="4"/>
<feGaussianBlur stdDeviation="2"/>
<feColorMatrix type="matrix" values="0 0 0 0 0 0 0 0 0 0 0 0 0 0 0 0 0 0 0.25 0"/>
<feBlend mode="normal" in2="BackgroundImageFix" result="effect1_dropShadow"/>
<feBlend mode="normal" in="SourceGraphic" in2="effect1_dropShadow" result="shape"/>
</filter>
</defs>
</svg>
