<svg width="34" height="31" viewBox="0 0 34 31" fill="none" xmlns="http://www.w3.org/2000/svg">
<path d="M2.6742 1.6084L8.44933 7.14888L8.09016 7.66336L0.362724 2.57259L6.95931 9.26434L6.63926 9.71766L0 5.51912L5.50842 11.3258L9.92156 11.7612L12.6455 14.0925L19.3026 19.7877L25.9596 25.4865C27.0656 26.4398 29.7504 28.746 29.7504 28.746C29.7504 28.746 33.6408 29.6814 34 29.8253C33.8009 29.4943 20.7855 18.0176 20.7855 18.0176L14.1284 12.3188L11.7281 10.2645L9.59439 5.53351L2.6742 1.6084Z" fill="#C6C6C6"/>
<path d="M14.3596 16.0098L0.45874 30.0768L4.49493 28.9867L15.9456 17.3661L14.3596 16.0098Z" fill="#C6C6C6"/>
<path d="M16.5254 13.8188L18.1079 15.1716L18.9258 14.3369L23.0082 13.6821L30.1844 0L16.5254 13.8188Z" fill="#C6C6C6"/>
</svg>
